<svg width="70" height="80" viewBox="0 0 70 80" fill="none" xmlns="http://www.w3.org/2000/svg">
<path fill-rule="evenodd" clip-rule="evenodd" d="M69.0453 13.0254C69.3582 13.3707 69.32 13.9042 68.9682 14.2097L66.5995 16.2666C66.3135 16.693 65.9699 17.1007 65.574 17.4788L60.2857 22.5288L65.8515 24.5225L65.8913 24.5777C66.133 24.9126 66.1166 25.3688 65.8515 25.6855L40.0995 40.8045H39.8628C39.1612 40.8045 38.6343 40.1637 38.7699 39.4753L46.8284 28.0115L43.0049 26.7328L42.859 26.6363C42.5377 26.4238 42.4754 25.978 42.726 25.6855L46.2699 20.8127C45.7015 20.6134 45.1228 20.4393 44.5352 20.2914C40.5718 19.2937 36.3977 19.536 32.5763 20.9855C28.7549 22.435 25.4702 25.022 23.1655 28.3972C20.8608 31.7725 19.6471 35.7736 19.6882 39.8604C19.7292 43.9473 21.0231 47.9232 23.3951 51.2515C25.7672 54.5797 29.1032 57.1002 32.9529 58.4726C36.8026 59.8451 40.9808 60.0035 44.9233 58.9264C48.5942 57.9235 51.8963 55.8945 54.4466 53.0858C54.7597 52.7408 55.2904 52.6912 55.6483 52.9896L69.4736 64.516C69.8315 64.8143 69.8804 65.347 69.5745 65.6984C64.4392 71.5982 57.669 75.8529 50.1117 77.9176C42.2829 80.0564 33.9863 79.7419 26.3419 77.0166C18.6975 74.2913 12.0731 69.2864 7.36294 62.6774C2.65276 56.0684 0.0835305 48.1735 0.00200219 40.0582C-0.0795261 31.9429 2.33058 23.9979 6.90702 17.2956C11.4835 10.5933 18.0059 5.45638 25.5941 2.57807C33.1822 -0.300242 41.4707 -0.78132 49.3409 1.19976C55.0792 2.64419 60.3936 5.34679 64.9142 9.08012C65.2303 9.314 65.54 9.54893 65.84 9.78363C66.1908 10.058 66.4857 10.3564 66.7276 10.673C67.5305 11.4227 68.3039 12.2074 69.0453 13.0254Z" fill="#48FF6F"/>
</svg>
