<svg xml:space="preserve" style="enable-background:new 0 0 576 243.8" viewBox="0 0 576 243.8" y="0" x="0" xmlns:xlink="http://www.w3.org/1999/xlink" xmlns="http://www.w3.org/2000/svg" id="Layer_1" version="1.1"><style>.st0{fill:#ff6c36}</style><g transform="matrix(1.25 0 0 -1.25 -135 544.164)"><defs><path d="M-156.6-50.6h990v765h-990z" id="SVGID_1_"></path></defs><clipPath id="SVGID_00000160911266806358785130000014756202532999990407_"></clipPath></g><path d="M0 172V67.8h25.4v82.4h40.4V172H0zM455.1 149.8c-2.1 5.1-5.1 9.6-9 13.3-3.9 3.6-8.6 6.5-14.2 8.6-5.5 2.1-11.8 3.1-18.5 3.1-6.9 0-13-1-18.5-3.1-5.5-2-10.1-4.9-14-8.6-3.9-3.6-6.8-8.1-8.9-13.3-2.1-5.1-3.1-10.9-3.1-17.1V67.8h25v62.9c0 2.9.4 5.5 1.1 8.1.8 2.5 1.9 4.9 3.4 6.9s3.5 3.6 6 4.7 5.5 1.7 9 1.7 6.5-.6 9-1.7 4.5-2.8 6.1-4.7c1.6-2 2.8-4.2 3.4-6.9.6-2.5 1-5.3 1-8.1V67.8H458v64.9c.3 6.2-.7 12-2.9 17.1m94.7-30.2c0-5.9-1-10.8-2.9-14.6s-4.5-7-7.6-9.2c-3.2-2.2-6.9-4-10.9-4.9-4.1-1-8.2-1.5-12.6-1.5h-12.5v60.9h11.9c4.5 0 8.9-.5 13-1.5s7.9-2.8 11-5.1c3.3-2.4 5.8-5.5 7.6-9.4 2.1-4 3-8.9 3-14.7m26.2 0c0 9.1-1.8 17-5.1 23.6s-7.9 12.1-13.4 16.4c-5.5 4.2-11.8 7.4-18.8 9.4s-14 3-21.2 3h-38.9V67.8h37.6c7.4 0 14.6.9 21.8 2.6s13.5 4.6 19.1 8.5c5.6 4 10.1 9.2 13.5 16 3.7 6.6 5.4 14.9 5.4 24.7m-276.6 35.7c18.5-44.7-2.8-96.1-47.5-114.6L243.5 61c33.6 13.9 49.5 52.4 35.6 85.9l20.3 8.4zm-106.2 27.1c-33.6-13.9-49.5-52.4-35.6-86L137.3 88c-18.5 44.7 2.8 96.1 47.5 114.6l8.4-20.2z" class="st0"></path><path d="M96.7 71.2c-27.9 67.1 4.1 144.2 71.3 172l8.4-20.2c-55.9-23.1-82.5-87.4-59.3-143.2l-20.4-8.6zm163.6-50.8c56 23.1 82.5 87.4 59.4 143.4l20.2 8.4c27.9-67.3-4-144.3-71.1-172.1l-8.5 20.3zm-5 101.3c0-20.4-16.5-36.7-36.7-36.7-20.4 0-36.7 16.5-36.7 36.7 0 20.4 16.5 36.7 36.7 36.7s36.7-16.4 36.7-36.7" class="st0"></path><path style="fill:#656569" d="M239.8 228.3c0-1.9-.8-3.3-2.1-3.9-1.4-.8-3.4-1.1-5.6-1.1H226v10.5h6.2c.9 0 1.7-.1 2.6-.2.9-.1 1.7-.4 2.5-.8s1.4-.9 1.9-1.6c.3-.9.6-1.8.6-2.9m-1.5-18.3c0-1.5-.6-2.6-1.7-3.4s-2.9-1.1-5.3-1.1h-5.4v9.5h5.9c2.1 0 3.6-.4 4.7-1.2 1.3-.9 1.8-2 1.8-3.8m12.6 19.3c0 2.5-.5 4.6-1.5 6.2-1 1.7-2.2 3.1-3.9 4.1-1.6 1-3.5 1.8-5.6 2.2-2.1.5-4.2.6-6.4.6h-18.3v-45.7h18.3c1.7 0 3.6.1 5.4.5 1.9.4 3.5 1 5 1.9 1.5.9 2.8 2.1 3.6 3.6 1 1.5 1.4 3.4 1.4 5.8 0 2.5-.8 4.6-2.1 6.2-1.4 1.6-3.1 2.9-5.4 3.6v.2c1.2.2 2.5.6 3.6 1.2s2.1 1.4 3 2.2 1.5 2 2 3.1c.7 1.4.9 2.8.9 4.3m20.1-32.5h11.1v45.8H271v-45.8zm66.3 45c-3 1.4-6.4 2-10.3 2-3.5 0-6.7-.6-9.7-1.8-3-1.1-5.6-2.7-7.8-4.9-2.2-2.1-3.9-4.6-5.1-7.6-1.2-3-1.9-6.2-1.9-9.8 0-3.6.6-7 1.9-10 1.2-3 3-5.5 5.3-7.6 2.2-2.1 4.9-3.8 7.9-4.8 3-1.1 6.2-1.6 9.8-1.6 3.2 0 6.4.6 9.5 1.8 3.1 1.1 5.6 2.7 7.6 5L337 210c-1-1.4-2.4-2.5-4.1-3.1-1.6-.8-3.4-1-5.1-1-1.9 0-3.8.4-5.4 1.1-1.6.8-3 1.7-4.1 2.9-1.1 1.2-2.1 2.8-2.8 4.4-.6 1.8-1 3.5-1 5.6s.4 4 1 5.6c.6 1.8 1.5 3.3 2.6 4.4 1.1 1.2 2.5 2.1 4.1 2.9 1.6.8 3.4 1 5.2 1 2.2 0 4.1-.4 5.8-1.2 1.6-.9 3-2 3.9-3.4l7.6 7.2c-2.1 2.2-4.6 4-7.4 5.4m46.5-18.5v19.4h-11v-19.4l-17.1-26.4H369l9.7 16.9 9.8-16.9h12.9l-17.6 26.4zm64.4 18.5c-3 1.4-6.4 2-10.3 2-3.5 0-6.8-.6-9.7-1.8-3-1.1-5.6-2.7-7.8-4.9-2.2-2.1-3.9-4.6-5.1-7.6-1.2-3-1.9-6.2-1.9-9.8 0-3.6.6-7 1.9-10 1.2-3 3-5.5 5.2-7.6 2.2-2.1 4.9-3.8 7.9-4.8 3-1.1 6.2-1.6 9.8-1.6 3.2 0 6.4.6 9.5 1.8 3.1 1.1 5.6 2.7 7.6 5l-7.5 7.5c-1-1.4-2.4-2.5-4.1-3.1-1.6-.8-3.4-1-5.1-1-1.9 0-3.8.4-5.4 1.1-1.6.8-3 1.7-4.1 2.9-1.1 1.2-2.1 2.8-2.8 4.4-.6 1.8-1 3.5-1 5.6s.4 4 1 5.6c.6 1.8 1.5 3.3 2.6 4.4 1.1 1.2 2.5 2.1 4.1 2.9 1.6.8 3.4 1 5.3 1 2.2 0 4.1-.4 5.8-1.2 1.6-.9 3-2 3.9-3.4l7.6 7.2c-1.9 2.2-4.4 4-7.4 5.4m25.1.8v-45.7h11.1V233H502v9.6h-28.7zm47 0v-45.7H551v9.2h-20.1v8.6h19v8.9h-19v9.6h21.2v9.4h-31.8z"></path></svg>